  <svg xmlns="http://www.w3.org/2000/svg" width="170" height="24" viewBox="0 0 170 24" xmlnsXlink="http://www.w3.org/1999/xlink">
    <defs>
      <path id="a" d="M.148.171H5.64V22.95H.148V.171z" />
    </defs>
    <g fill="none" fill-rule="evenodd">
      <path
        fill="#fff"
        d="M48.552 14.193h4.96a.123.123 0 0 0 .117-.164l-2.451-7.065a.123.123 0 0 0-.233-.001l-2.51 7.065a.124.124 0 0 0 .117.165m6.503 4.444h-8.108a.247.247 0 0 0-.233.165l-1.458 4.115a.247.247 0 0 1-.232.165h-4.592a.247.247 0 0 1-.232-.334l8.055-21.389a.247.247 0 0 1 .231-.16h5.306c.103 0 .195.064.231.161l7.965 21.389a.247.247 0 0 1-.232.333h-4.778a.247.247 0 0 1-.233-.165l-1.458-4.115a.247.247 0 0 0-.232-.165"
      />
      <g transform="translate(62.952 .133)">
        <path
          fill="#fff"
          d="M.549 22.702V7.856c0-.136.11-.247.247-.247h4.197c.137 0 .247.111.247.247v14.846c0 .136-.11.247-.247.247H.796a.247.247 0 0 1-.247-.247M2.864.172c1.543 0 2.777 1.234 2.777 2.746 0 1.513-1.234 2.747-2.777 2.747C1.382 5.665.148 4.43.148 2.918.148 1.406 1.382.171 2.864.171"
        />
      </g>
      <path
        fill="#fff"
        d="M80.26 12.07c0 .152-.139.27-.29.242a6.754 6.754 0 0 0-1.192-.094c-1.883 0-3.58 1.11-3.58 4.166v6.451c0 .136-.111.247-.247.247h-4.198a.247.247 0 0 1-.247-.247V7.989c0-.136.11-.247.247-.247h4.044c.136 0 .246.11.246.247V9.81c.803-1.728 2.747-2.222 3.982-2.222.374 0 .749.04 1.042.105a.246.246 0 0 1 .192.241v4.135zM96.92 7.912l2.812 8.55a.123.123 0 0 0 .236-.005l2.401-8.534a.247.247 0 0 1 .238-.18h4.077c.166 0 .285.16.235.32l-4.6 14.845a.247.247 0 0 1-.235.174h-4.302a.247.247 0 0 1-.234-.168l-3.158-9.388a.124.124 0 0 0-.235 0l-3.099 9.386a.247.247 0 0 1-.234.17h-4.394a.247.247 0 0 1-.235-.173l-4.66-14.846a.247.247 0 0 1 .235-.32h4.354c.11 0 .207.073.237.18l2.402 8.507c.033.117.198.121.236.006L91.84 7.91a.246.246 0 0 1 .234-.169h4.613c.106 0 .2.069.234.17M115.171 19.47c1.883 0 3.488-1.48 3.488-4.073 0-2.655-1.574-4.043-3.488-4.043-2.006 0-3.519 1.388-3.519 4.043 0 2.53 1.575 4.074 3.519 4.074m3.519 1.636c-.68 1.48-2.223 2.407-4.136 2.407-4.506 0-7.624-3.426-7.624-8.148 0-4.568 2.932-8.087 7.47-8.087 2.746 0 3.95 1.513 4.259 2.223V7.989c0-.136.11-.247.247-.247h4.043c.136 0 .247.111.247.247v14.846c0 .136-.11.247-.247.247h-4.04a.247.247 0 0 1-.247-.25c.008-.559.028-1.847.028-1.725M125.603 22.835V.983c0-.136.11-.247.247-.247h4.197c.137 0 .247.11.247.247v21.852c0 .136-.11.247-.247.247h-4.197a.247.247 0 0 1-.247-.247M132.517 22.835V.983c0-.136.11-.247.246-.247h4.198c.136 0 .247.11.247.247v21.852c0 .136-.11.247-.247.247h-4.198a.247.247 0 0 1-.246-.247M158.997 15.287l-5.001-7.156a.247.247 0 0 1 .202-.389h4.918c.083 0 .16.042.206.112l2.57 3.926c.048.075.159.075.207 0l2.51-3.924a.246.246 0 0 1 .207-.114h4.635c.2 0 .317.227.202.39L164.72 15.1a.246.246 0 0 0-.001.283c1.615 2.309 3.46 4.975 5.117 7.308.116.164 0 .39-.201.39h-4.882a.246.246 0 0 1-.207-.112l-2.664-4.054a.123.123 0 0 0-.205-.001c-.798 1.191-1.841 2.85-2.633 4.056a.246.246 0 0 1-.206.11h-4.55a.247.247 0 0 1-.204-.386l4.914-7.126a.247.247 0 0 0-.001-.282"
      />
      <path
        fill="#fff"
        d="M146.467 10.983c2.137 0 2.96 1.313 3.076 2.456a.124.124 0 0 1-.123.137h-5.87a.124.124 0 0 1-.123-.141c.16-1.117 1.145-2.452 3.04-2.452zm3.217 7.268a.244.244 0 0 0-.2.103c-.53.747-1.39 1.21-2.678 1.21-1.772 0-3.31-1.17-3.477-2.827a.124.124 0 0 1 .124-.137h10.544c.032-.092.094-.802.094-1.45 0-4.938-2.933-7.87-7.686-7.87-3.981 0-7.654 3.147-7.654 8.086 0 5.154 3.765 8.179 7.994 8.179 3.822 0 6.243-2.147 7.028-4.741a3.88 3.88 0 0 0 .06-.255.247.247 0 0 0-.241-.298h-3.908zM24.942 15.353l2.942 3.576 2.189-5.643-5.131 2.067zm3.175 3.893zm-.236 4.304a4.455 4.455 0 0 1-3.52-1.722L11.001 5.59a2.33 2.33 0 0 1-.173-.241.464.464 0 0 0-.464-.228.459.459 0 0 0-.41.315l-4.898 13.02 6.538-2.657a2.281 2.281 0 0 1 1.718 4.226L5.306 23.28a3.865 3.865 0 0 1-4.186-.912 3.865 3.865 0 0 1-.864-4.105L5.684 3.83A5.02 5.02 0 0 1 9.912.58a5.017 5.017 0 0 1 4.693 2.209l7.298 8.87 7.134-2.874a4.182 4.182 0 0 1 4.565.798 4.182 4.182 0 0 1 1.028 4.568l-2.522 6.767a4.455 4.455 0 0 1-3.437 2.83 4.613 4.613 0 0 1-.79.069z"
      />
    </g>
  </svg>