<svg xmlns="http://www.w3.org/2000/svg" width="440" height="440" viewBox="0 0 440 440">
    <g fill="none" fill-rule="evenodd">
        <path fill="#9AE7FD" d="M440 220c0 121.503-98.497 220-220 220S0 341.503 0 220 98.497 0 220 0s220 98.497 220 220z"/>
        <path fill="#4391A6" d="M398 262.06c0 50.029-16.706 96.15-44.827 133.113C316.21 423.294 270.089 440 220.06 440 98.524 440 0 341.476 0 219.94c0-50.029 16.706-96.15 44.827-133.113C81.79 58.706 127.911 42 177.94 42c42.531 0 82.236 12.078 115.896 32.975a9.954 9.954 0 0 1 5.698-1.787c5.527 0 10.007 4.48 10.007 10.007 0 .786-.1 1.547-.27 2.28C363.12 125.589 398 189.749 398 262.06z"/>
        <path fill="#328093" d="M231 439.691c-3.809.197-7.64.309-11.498.309C98.274 440 0 341.476 0 219.94c0-50.029 16.663-96.15 44.713-133.113C81.583 58.706 127.586 42 177.488 42c3.909 0 7.793.107 11.652.309-.454.023-.909.048-1.362.074-87.442 5.07-158.017 74.479-164.092 162.078a223.496 223.496 0 0 0-.535 15.479c0 117.617 92.04 213.677 207.849 219.751z"/>
        <path fill="#9BD04C" fill-rule="nonzero" d="M362.676 330.104c0 7.113-5.758 12.879-12.861 12.879h-42.87c-7.102 0-12.86-5.766-12.86-12.879 0-7.112 5.758-12.878 12.86-12.878h42.87c7.103 0 12.86 5.766 12.86 12.878zM75.45 239.955H62.59c-9.471 0-17.148-7.687-17.148-17.17v-12.88c0-16.595-13.436-30.049-30.009-30.049H3.705A221.249 221.249 0 0 0 0 220.208c0 64.399 27.66 122.326 71.73 162.526 9.83-4.935 16.581-15.112 16.581-26.873 0-16.596-13.435-30.05-30.008-30.05h-4.287c-7.103 0-12.861-5.766-12.861-12.878s5.758-12.878 12.86-12.878H75.45c16.574 0 30.009-13.454 30.009-30.05s-13.435-30.05-30.009-30.05zM302.66 385.911c-9.471 0-17.148-7.688-17.148-17.172v-12.878c0-16.596-13.436-30.05-30.009-30.05H152.615c-16.573 0-30.008 13.454-30.008 30.05s13.435 30.05 30.008 30.05h12.861c9.47 0 17.148 7.687 17.148 17.17v12.88c0 8.902 3.87 16.897 10.012 22.4A221.29 221.29 0 0 0 219.492 440c49.89 0 95.883-16.678 132.746-44.756a219.42 219.42 0 0 0 5.912-8.15 29.935 29.935 0 0 0-8.335-1.183h-47.156zM178.337 265.712h102.887c16.573 0 30.008-13.453 30.008-30.05 0-16.595-13.434-30.048-30.006-30.05h8.572c-7.103 0-12.861-5.765-12.861-12.878 0-7.112 5.758-12.878 12.86-12.878H381a219.772 219.772 0 0 0-36.44-60.1H212.632c-16.574 0-30.009 13.454-30.009 30.05s13.435 30.05 30.009 30.05h25.721c7.103 0 12.861 5.766 12.861 12.878 0 7.113-5.757 12.879-12.86 12.879h-60.018c-16.573 0-30.009 13.454-30.009 30.05s13.436 30.05 30.01 30.05zM84.024 119.757h42.87c7.102 0 12.86-5.766 12.86-12.879 0-7.112-5.758-12.878-12.86-12.878h-42.87c-7.102 0-12.86 5.766-12.86 12.878 0 7.113 5.758 12.879 12.86 12.879z"/>
        <path fill="#80BE1C" fill-rule="nonzero" d="M49.683 325.11a220.359 220.359 0 0 0 34.049 46.748 30.168 30.168 0 0 1-12 10.908C27.661 342.588 0 284.692 0 220.33c0-13.778 1.28-27.255 3.705-40.33h11.729c3.9 0 7.622.753 11.04 2.107a221.04 221.04 0 0 0-3.323 38.223c0 31.563 6.664 61.563 18.64 88.69a12.858 12.858 0 0 0-.635 3.983c0 5.584 3.56 10.324 8.527 12.106zm138.349 108.032a30.224 30.224 0 0 0 4.612 5.22A221.43 221.43 0 0 0 219.5 440c3.858 0 7.69-.112 11.499-.308a219.115 219.115 0 0 1-42.968-6.55z"/>
        <path fill="#FFF587" fill-rule="nonzero" d="M206.2 136.444c0 9.512-7.7 17.223-17.2 17.223s-17.2-7.71-17.2-17.223c0-9.511 7.7-17.222 17.2-17.222s17.2 7.71 17.2 17.222zM94.4 119.222C94.4 109.71 86.7 102 77.2 102S60 109.71 60 119.222s7.7 17.222 17.2 17.222 17.2-7.71 17.2-17.222zm-8.6 103.334c-9.5 0-17.2 7.71-17.2 17.222S76.3 257 85.8 257s17.2-7.71 17.2-17.222-7.7-17.222-17.2-17.222zm215-25.834c-9.5 0-17.2 7.71-17.2 17.222s7.7 17.223 17.2 17.223 17.2-7.71 17.2-17.223c0-9.511-7.7-17.222-17.2-17.222zM189 257c0-9.512-7.7-17.222-17.2-17.222s-17.2 7.71-17.2 17.222 7.7 17.222 17.2 17.222S189 266.512 189 257zm0 120.556c-9.5 0-17.2 7.71-17.2 17.222S179.5 412 189 412s17.2-7.71 17.2-17.222-7.7-17.222-17.2-17.222z"/>
        <path fill="#235967" fill-rule="nonzero" d="M40 348.888c.068.095.138.188.206.282l-.004.006c-.068-.095-.133-.193-.202-.288zM392.59 85.564c3.066-14.51 1.138-25.321-5.85-32.307-6.666-6.665-16.814-8.725-30.336-6.238-.65.12-3.48.699-4.239.88-15.701 3.777-35.537 13.137-59.376 28.021a220.627 220.627 0 0 1 15.59 10.611c30.17-18.062 48.467-23.373 58.206-23.373 2.408 0 4.282.33 5.695.866.191.073 1.061.477 1.088.492.483.27.887.573 1.213.898.44.441.84 1.026 1.174 1.76a12.27 12.27 0 0 1 .275.688c2.797 7.77-.621 29.218-27.745 72.158-27.228 43.104-69.703 94.32-119.605 144.213-47.482 47.475-96.155 88.218-137.903 115.511A220.107 220.107 0 0 0 106.42 410c41.28-27.823 88.466-67.663 134.42-113.61 50.775-50.768 94.096-103.04 121.983-147.19 15.905-25.179 25.722-45.951 29.46-62.22a.06.06 0 0 0 .006.009c.034-.146.25-1.086.318-1.406l-.017-.019z"/>
        <path fill="#FFB739" d="M344.499 352.54L319.54 377.5a1.711 1.711 0 0 1-2.42 0l-40.111-40.112-19.789 19.79c-.91.909-2.46.527-2.844-.701l-30.296-97.253c-.41-1.317.826-2.554 2.143-2.143l97.253 30.296a1.711 1.711 0 0 1 .7 2.845l-19.788 19.788L344.5 350.12a1.712 1.712 0 0 1-.001 2.42z"/>
    </g>
</svg>
